<svg xmlns="http://www.w3.org/2000/svg" width="157.833" height="37.531" viewBox="0 0 157.833 37.531">
  <g id="Grupo_197" data-name="Grupo 197" transform="translate(-761.5 -10395.5)">
    <path id="Caminho_46" data-name="Caminho 46" d="M4.08,0H1.2V-17.85q0-3.69,3.45-3.69H6.81q3.45,0,3.45,3.69V0H7.38V-7.89H4.08Zm3.3-10.5v-7.17a1.114,1.114,0,0,0-1.26-1.26H5.34a1.114,1.114,0,0,0-1.26,1.26v7.17ZM21.42-21.54V-4.08Q21.42,0,17.94,0H15.51q-3.45,0-3.45-4.11V-21.54h2.88V-4.02q0,1.41,1.26,1.41h1.17q1.17,0,1.17-1.41V-21.54ZM27.81-7.89V-10.5h4.38V0H26.55q-3.33,0-3.33-3.63V-17.85q0-3.69,3.33-3.69h1.98q3.66,0,3.66,3.75v2.34H29.31v-1.92q0-1.56-1.23-1.56h-.72q-1.26,0-1.26,1.56v13.2q0,1.56,1.26,1.56h1.95V-7.89ZM43.14-21.54V-4.08Q43.14,0,39.66,0H37.23q-3.45,0-3.45-4.11V-21.54h2.88V-4.02q0,1.41,1.26,1.41h1.17q1.17,0,1.17-1.41V-21.54Zm7.47,5.79v-1.89a1.127,1.127,0,0,0-1.26-1.29H48.9q-1.23,0-1.23,1.29v3.57a1.058,1.058,0,0,0,.24.81,6.079,6.079,0,0,0,.78.54l2.73,1.47a12.55,12.55,0,0,1,1.275.8,2.036,2.036,0,0,1,.585.69,3.8,3.8,0,0,1,.21,1.545v4.59Q53.49,0,50.01,0H48.24q-3.45,0-3.45-3.96V-5.04h2.88v1.17a1.127,1.127,0,0,0,1.29,1.26h.51q1.14,0,1.14-1.26V-7.53a1.058,1.058,0,0,0-.24-.81,6.079,6.079,0,0,0-.78-.54l-2.73-1.53a8.613,8.613,0,0,1-1.305-.81,1.851,1.851,0,0,1-.585-.855,4.3,4.3,0,0,1-.18-1.365v-4.41q0-3.69,3.45-3.69h1.8q3.45,0,3.45,3.69v2.1Zm9.12-3.18V0H56.85V-18.93H54.09v-2.61h8.4v2.61ZM66.72,0q-3.48,0-3.48-3.66V-17.85q0-3.69,3.45-3.69h2.76q3.45,0,3.45,3.69V-3.66Q72.9,0,69.42,0Zm.69-2.61h1.47q1.14,0,1.14-1.26v-13.8a1.127,1.127,0,0,0-1.29-1.26H67.38a1.114,1.114,0,0,0-1.26,1.26v13.8A1.127,1.127,0,0,0,67.41-2.61ZM85.59,0H78.75V-21.54h2.88V-2.61h3.96Zm.9,0V-21.54h2.88V0ZM97.17-8.88l2.67-12.66h3.18V0h-2.88l.3-14.1L98.28-3.9H96.06L93.9-14.1,94.2,0H91.32V-21.54H94.5ZM107.7,0h-2.88V-17.85q0-3.69,3.45-3.69h2.16q3.45,0,3.45,3.69V0H111V-7.89h-3.3ZM111-10.5v-7.17a1.114,1.114,0,0,0-1.26-1.26h-.78a1.114,1.114,0,0,0-1.26,1.26v7.17Z" transform="translate(805.453 10424.741)" fill="#101010"/>
    <path id="Subtração_9" data-name="Subtração 9" d="M35.081,36.531H1.453A1.454,1.454,0,0,1,0,35.079V1.453A1.437,1.437,0,0,1,1.453,0H35.081a1.454,1.454,0,0,1,1.452,1.453V35.079A1.471,1.471,0,0,1,35.081,36.531Zm-13.571-15h2.2v7.744a1,1,0,0,0,1,1h4.607a1,1,0,0,0,1-1V22.532a1,1,0,0,0-1-1h-.2a1,1,0,0,0-1,1v5.538h-2.2V19.326h4.4v-2.2h-.084a.981.981,0,0,0,.084-.4V7.093a1,1,0,0,0-1-1h-.2a1,1,0,0,0-1,1V16.72a.982.982,0,0,0,.084.4H25.915V7.093a1,1,0,0,0-1-1H11.5a1,1,0,0,0-1,1V17.121H8.212a.981.981,0,0,0,.084-.4V7.093a1,1,0,0,0-1-1h-.2a1,1,0,0,0-1,1V16.72a.994.994,0,0,0,.286.7.994.994,0,0,0-.286.7v.205a1,1,0,0,0,1,1h3.4v8.743H8.3V22.532a1,1,0,0,0-1-1h-.2a1,1,0,0,0-1,1v6.744a1,1,0,0,0,1,1H11.7a1,1,0,0,0,1-1V21.532h2.2v7.744a1,1,0,0,0,1,1h.2a1,1,0,0,0,1-1V21.532h2.2v7.744a1,1,0,0,0,1,1h.2a1,1,0,0,0,1-1V21.533Zm0-8.116h-2.2V9h2.2v4.41Zm-4.4,0H14.9V9h2.2v4.41Z" transform="translate(762 10396)" fill="#101010" stroke="rgba(0,0,0,0)" stroke-miterlimit="10" stroke-width="1"/>
  </g>
</svg>
