<svg xmlns="http://www.w3.org/2000/svg" width="171.673" height="41.5" viewBox="0 0 171.673 41.5"><g transform="translate(-795.5 -313.499)"><text transform="translate(844.173 344.93)" fill="#2a2a3e" font-size="32" font-family="BigNoodleTitling" letter-spacing="-0.025em"><tspan x="0" y="0">Augusto Lima</tspan></text><path d="M38.891,40.5H1.61A1.612,1.612,0,0,1,0,38.89V1.611A1.593,1.593,0,0,1,1.61,0H38.891A1.613,1.613,0,0,1,40.5,1.611V38.89A1.632,1.632,0,0,1,38.891,40.5ZM23.846,23.871h2.442v8.693a1,1,0,0,0,1,1h5.325a1,1,0,0,0,1-1V24.871a1,1,0,0,0-1-1h-.442a1,1,0,0,0-1,1v6.249H28.73V21.425h4.883V18.981h-.058a1.02,1.02,0,0,0,.058-.336V7.755a1,1,0,0,0-1-1h-.442a1,1,0,0,0-1,1v10.89a1.007,1.007,0,0,0,.058.336h-2.5V7.755a1,1,0,0,0-1-1H12.639a1,1,0,0,0-1,1V18.981H9.14a1.021,1.021,0,0,0,.058-.336V7.755a1,1,0,0,0-1-1H7.755a1,1,0,0,0-1,1v10.89a1,1,0,0,0,.256.668,1,1,0,0,0-.256.668v.445a1,1,0,0,0,1,1h3.884v9.694H9.2V24.871a1,1,0,0,0-1-1H7.755a1,1,0,0,0-1,1v7.693a1,1,0,0,0,1,1h5.325a1,1,0,0,0,1-1V23.871h2.442v8.693a1,1,0,0,0,1,1h.441a1,1,0,0,0,1-1V23.871H21.4v8.693a1,1,0,0,0,1,1h.441a1,1,0,0,0,1-1V23.872Zm0-9H21.4V9.983h2.442v4.89Zm-4.883,0H16.522V9.983h2.442v4.89Z" transform="translate(796 313.999)" fill="#2a2a3e" stroke="rgba(0,0,0,0)" stroke-miterlimit="10" stroke-width="1"/></g></svg>