<svg xmlns="http://www.w3.org/2000/svg" width="366.913" height="84.935" viewBox="0 0 366.913 84.935"><g transform="translate(-795.5 -313.5)"><path d="M9.551,0H2.809V-41.784q0-8.638,8.076-8.638h5.056q8.076,0,8.076,8.638V0H17.275V-18.469H9.551Zm7.725-24.579V-41.363a2.607,2.607,0,0,0-2.949-2.949H12.5a2.607,2.607,0,0,0-2.949,2.949v16.784ZM50.141-50.422V-9.551Q50.141,0,41.995,0H36.307q-8.076,0-8.076-9.621v-40.8h6.742V-9.41q0,3.3,2.949,3.3h2.739q2.739,0,2.739-3.3V-50.422ZM65.1-18.469v-6.11H75.352V0H62.15q-7.8,0-7.8-8.5V-41.784q0-8.638,7.8-8.638h4.635q8.568,0,8.568,8.778v5.478H68.61v-4.494q0-3.652-2.879-3.652H64.046q-2.949,0-2.949,3.652v30.9q0,3.652,2.949,3.652H68.61v-12.36Zm35.885-31.953V-9.551Q100.984,0,92.838,0H87.15q-8.076,0-8.076-9.621v-40.8h6.742V-9.41q0,3.3,2.949,3.3H91.5q2.739,0,2.739-3.3V-50.422ZM118.47-36.868v-4.424q0-3.02-2.949-3.02h-1.053q-2.879,0-2.879,3.02v8.357a2.476,2.476,0,0,0,.562,1.9,14.23,14.23,0,0,0,1.826,1.264l6.391,3.441a29.378,29.378,0,0,1,2.985,1.861,4.767,4.767,0,0,1,1.369,1.615,8.9,8.9,0,0,1,.492,3.617V-8.5q0,8.5-8.146,8.5h-4.143q-8.076,0-8.076-9.27V-11.8h6.742v2.739q0,2.949,3.02,2.949H115.8q2.669,0,2.669-2.949v-8.568a2.476,2.476,0,0,0-.562-1.9,14.23,14.23,0,0,0-1.826-1.264l-6.391-3.582a20.162,20.162,0,0,1-3.055-1.9,4.332,4.332,0,0,1-1.369-2,10.056,10.056,0,0,1-.421-3.2V-41.784q0-8.638,8.076-8.638h4.214q8.076,0,8.076,8.638v4.916Zm21.349-7.444V0h-6.742V-44.312h-6.461v-6.11H146.28v6.11ZM156.182,0q-8.146,0-8.146-8.568V-41.784q0-8.638,8.076-8.638h6.461q8.076,0,8.076,8.638V-8.568Q170.648,0,162.5,0ZM157.8-6.11h3.441q2.669,0,2.669-2.949v-32.3q0-2.949-3.02-2.949h-3.16a2.607,2.607,0,0,0-2.949,2.949v32.3Q154.777-6.11,157.8-6.11ZM200.353,0H184.342V-50.422h6.742V-6.11h9.27Zm2.107,0V-50.422H209.2V0Zm25-20.787,6.25-29.635h7.444V0h-6.742l.7-33.006L230.059-9.129h-5.2l-5.056-23.877L220.508,0h-6.742V-50.422h7.444ZM252.11,0h-6.742V-41.784q0-8.638,8.076-8.638H258.5q8.076,0,8.076,8.638V0h-6.742V-18.469H252.11Zm7.725-24.579V-41.363a2.607,2.607,0,0,0-2.949-2.949h-1.826a2.607,2.607,0,0,0-2.949,2.949v16.784Z" transform="translate(895.837 381.001)" fill="#2a2a3e"/><path d="M-2069.4-6635.065h-77.265A3.341,3.341,0,0,1-2150-6638.4v-77.259a3.3,3.3,0,0,1,3.337-3.338h77.265a3.342,3.342,0,0,1,3.337,3.338v77.259A3.382,3.382,0,0,1-2069.4-6635.065Zm-31.18-34.465h5.059v19.092a1,1,0,0,0,1,1h13.207a1,1,0,0,0,.976-1v-18.092a1,1,0,0,0-1-1h-3.061a1,1,0,0,0-1,1v14.026h-5.059V-6674.6h10.121V-6704a1,1,0,0,0-1-1h-3.061a1,1,0,0,0-1,1v24.339h-5.059V-6704a1,1,0,0,0-1-1h-33.42a1,1,0,0,0-1,1v24.339h-5.061V-6704a1,1,0,0,0-1-1H-2135a1,1,0,0,0-1,1v24.715a1.014,1.014,0,0,0,.049.312.994.994,0,0,0-.049.312v3.065a1,1,0,0,0,1,1h9.119v20.091h-5.061v-14.026a1,1,0,0,0-1-1H-2135a1,1,0,0,0-1,1v18.092a1,1,0,0,0,1,1h13.178a1,1,0,0,0,1-1v-19.092h5.061v19.092a1,1,0,0,0,1,1h3.059a1,1,0,0,0,1-1v-19.092h5.059v19.092a1,1,0,0,0,1,1h3.061a1,1,0,0,0,1-1v-19.091Zm0-18.646h-5.062v-10.134h5.062v10.133Zm-10.121,0h-5.06v-10.134h5.06v10.133Z" transform="translate(2946 7033)" fill="#2a2a3e" stroke="rgba(0,0,0,0)" stroke-miterlimit="10" stroke-width="1"/></g></svg>